<?xml version="1.0" encoding="UTF-8"?>
<svg xmlns="http://www.w3.org/2000/svg" xmlns:xlink="http://www.w3.org/1999/xlink" width="40px" height="40px" viewBox="0 0 40 40" version="1.1">
<g id="surface1">
<path style=" stroke:none;fill-rule:evenodd;fill:rgb(1.176471%,1.176471%,1.176471%);fill-opacity:1;" d="M -0.0390625 -0.0390625 C 13.292969 -0.0390625 26.628906 -0.0390625 39.960938 -0.0390625 C 39.960938 13.292969 39.960938 26.628906 39.960938 39.960938 C 26.628906 39.960938 13.292969 39.960938 -0.0390625 39.960938 C -0.0390625 26.628906 -0.0390625 13.292969 -0.0390625 -0.0390625 Z M -0.0390625 -0.0390625 "/>
<path style=" stroke:none;fill-rule:evenodd;fill:rgb(98.823529%,48.627451%,0.784314%);fill-opacity:1;" d="M 16.445312 11.289062 C 16.445312 14.414062 16.445312 17.539062 16.445312 20.664062 C 16.488281 22.175781 16.242188 23.632812 15.703125 25.039062 C 14.976562 26.464844 13.816406 27.339844 12.226562 27.65625 C 11.84375 27.777344 11.453125 27.84375 11.054688 27.851562 C 11.054688 26.785156 11.054688 25.714844 11.054688 24.648438 C 11.589844 24.609375 12.019531 24.375 12.34375 23.945312 C 12.835938 22.855469 13.042969 21.710938 12.96875 20.507812 C 12.996094 17.433594 13.019531 14.363281 13.046875 11.289062 C 14.1875 11.183594 15.320312 11.183594 16.445312 11.289062 Z M 16.445312 11.289062 "/>
<path style=" stroke:none;fill-rule:evenodd;fill:rgb(98.823529%,98.823529%,98.823529%);fill-opacity:1;" d="M 22.070312 21.445312 C 22.042969 21.660156 22.097656 21.839844 22.226562 21.992188 C 22.714844 24.105469 24.042969 25.003906 26.210938 24.6875 C 27.398438 24.398438 28.078125 23.65625 28.242188 22.460938 C 29.441406 22.433594 30.640625 22.460938 31.835938 22.539062 C 31.304688 25.53125 29.535156 27.289062 26.523438 27.8125 C 22.761719 28.25 20.183594 26.726562 18.789062 23.242188 C 18.804688 23.007812 18.753906 22.800781 18.632812 22.617188 C 17.984375 19.863281 18.257812 17.207031 19.453125 14.648438 C 21.066406 12.128906 23.371094 10.996094 26.367188 11.25 C 28.398438 11.449219 30.023438 12.347656 31.25 13.945312 C 31.769531 14.820312 32.09375 15.757812 32.226562 16.757812 C 31.027344 16.757812 29.832031 16.757812 28.632812 16.757812 C 28.433594 15.617188 27.78125 14.847656 26.679688 14.453125 C 24.847656 14.035156 23.480469 14.648438 22.578125 16.289062 C 21.910156 17.957031 21.742188 19.675781 22.070312 21.445312 Z M 22.070312 21.445312 "/>
<path style=" stroke:none;fill-rule:evenodd;fill:rgb(26.666667%,16.862745%,10.980392%);fill-opacity:1;" d="M 16.445312 11.289062 C 16.582031 12.238281 16.660156 13.214844 16.679688 14.21875 C 16.667969 14.308594 16.652344 14.402344 16.640625 14.492188 C 16.613281 14.363281 16.589844 14.230469 16.5625 14.101562 C 16.550781 16.300781 16.511719 18.488281 16.445312 20.664062 C 16.445312 17.539062 16.445312 14.414062 16.445312 11.289062 Z M 16.445312 11.289062 "/>
<path style=" stroke:none;fill-rule:evenodd;fill:rgb(58.823529%,58.823529%,59.215686%);fill-opacity:1;" d="M 22.070312 21.445312 C 22.15625 21.609375 22.210938 21.792969 22.226562 21.992188 C 22.097656 21.839844 22.042969 21.660156 22.070312 21.445312 Z M 22.070312 21.445312 "/>
<path style=" stroke:none;fill-rule:evenodd;fill:rgb(76.078431%,76.078431%,76.470588%);fill-opacity:1;" d="M 8.867188 22.539062 C 7.722656 22.539062 6.574219 22.539062 5.429688 22.539062 C 5.429688 22.722656 5.429688 22.902344 5.429688 23.085938 C 5.355469 22.894531 5.328125 22.6875 5.351562 22.460938 C 6.539062 22.433594 7.710938 22.460938 8.867188 22.539062 Z M 8.867188 22.539062 "/>
<path style=" stroke:none;fill-rule:evenodd;fill:rgb(98.823529%,98.823529%,98.823529%);fill-opacity:1;" d="M 8.867188 22.539062 C 8.96875 22.582031 9.03125 22.660156 9.0625 22.773438 C 9.117188 23.578125 9.496094 24.164062 10.195312 24.53125 C 10.449219 24.625 10.707031 24.664062 10.976562 24.648438 C 10.976562 25.691406 10.976562 26.730469 10.976562 27.773438 C 10.691406 27.773438 10.402344 27.773438 10.117188 27.773438 C 7.414062 27.359375 5.851562 25.796875 5.429688 23.085938 C 5.429688 22.902344 5.429688 22.722656 5.429688 22.539062 C 6.574219 22.539062 7.722656 22.539062 8.867188 22.539062 Z M 8.867188 22.539062 "/>
<path style=" stroke:none;fill-rule:evenodd;fill:rgb(30.196078%,30.196078%,30.196078%);fill-opacity:1;" d="M 18.632812 22.617188 C 18.753906 22.800781 18.804688 23.007812 18.789062 23.242188 C 18.691406 23.054688 18.636719 22.847656 18.632812 22.617188 Z M 18.632812 22.617188 "/>
<path style=" stroke:none;fill-rule:evenodd;fill:rgb(94.901961%,85.490196%,79.215686%);fill-opacity:1;" d="M 10.976562 24.648438 C 11.003906 24.648438 11.027344 24.648438 11.054688 24.648438 C 11.054688 25.714844 11.054688 26.785156 11.054688 27.851562 C 10.726562 27.875 10.414062 27.851562 10.117188 27.773438 C 10.402344 27.773438 10.691406 27.773438 10.976562 27.773438 C 10.976562 26.730469 10.976562 25.691406 10.976562 24.648438 Z M 10.976562 24.648438 "/>
</g>
</svg>
